<?xml version="1.0" ?><svg id="Layer_1" style="enable-background:new 0 0 65 65;" version="1.1" viewBox="0 0 65 65" xml:space="preserve" xmlns="http://www.w3.org/2000/svg" xmlns:xlink="http://www.w3.org/1999/xlink"><style type="text/css">
	.st0{fill:#1C1F20;}
</style><g><path class="st0" d="M47.6,30.5c0.4,0,0.8-0.3,0.8-0.8v-4.3c0-0.4-0.3-0.8-0.8-0.8s-0.8,0.3-0.8,0.8v4.3   C46.8,30.2,47.1,30.5,47.6,30.5z"/><path class="st0" d="M47.6,62.8H2.3V17.8L17.9,2.3h28.9v17.2c0,0.4,0.3,0.8,0.8,0.8s0.8-0.3,0.8-0.8v-18c0-0.4-0.3-0.8-0.8-0.8h-30   c-0.2,0-0.4,0.1-0.5,0.2L1,17c-0.1,0.1-0.2,0.3-0.2,0.5v46c0,0.4,0.3,0.8,0.8,0.8h46c0.4,0,0.8-0.3,0.8-0.8S48,62.8,47.6,62.8z"/><path class="st0" d="M18.3,17.5v-12c0-0.4-0.3-0.8-0.8-0.8s-0.8,0.3-0.8,0.8v11.3H5.6c-0.4,0-0.8,0.3-0.8,0.8s0.3,0.8,0.8,0.8h12   C18,18.3,18.3,17.9,18.3,17.5z"/><path class="st0" d="M40.6,23.8h-33c-0.4,0-0.8,0.3-0.8,0.8s0.3,0.8,0.8,0.8h33c0.4,0,0.8-0.3,0.8-0.8S41,23.8,40.6,23.8z"/><path class="st0" d="M41.3,30.5c0-0.4-0.3-0.8-0.8-0.8h-33c-0.4,0-0.8,0.3-0.8,0.8s0.3,0.8,0.8,0.8h33C41,31.3,41.3,30.9,41.3,30.5   z"/><path class="st0" d="M7.6,35.8c-0.4,0-0.8,0.3-0.8,0.8s0.3,0.8,0.8,0.8h27c0.4,0,0.8-0.3,0.8-0.8s-0.3-0.8-0.8-0.8H7.6z"/><path class="st0" d="M50.4,32.8c-5.8,0-10.9,3.6-12.9,9H9.7c-0.2,0-0.4,0.1-0.5,0.2l-4,4c-0.1,0.1-0.2,0.3-0.2,0.5S5,46.8,5.1,47   l4,4c0.1,0.1,0.3,0.2,0.5,0.2h4.1c0.2,0,0.4-0.1,0.5-0.2l2.3-2.3L19,51c0.1,0.1,0.3,0.2,0.5,0.2h1c0.2,0,0.4-0.1,0.5-0.2l2.3-2.3   l2.3,2.3c0.1,0.1,0.3,0.2,0.5,0.2h1c0.2,0,0.4-0.1,0.5-0.2l2.3-2.3l2.3,2.3c0.1,0.1,0.3,0.2,0.5,0.2h4.5c2,5.4,7.1,9,12.9,9   c7.6,0,13.8-6.2,13.8-13.8S58,32.8,50.4,32.8z M50.4,58.8c-5.4,0-10-3.4-11.7-8.5c-0.1-0.3-0.4-0.5-0.7-0.5h-4.7l-2.6-2.6   c-0.1-0.1-0.3-0.2-0.5-0.2s-0.4,0.1-0.5,0.2L27,49.7h-0.4L24,47.1c-0.3-0.3-0.8-0.3-1.1,0l-2.6,2.6h-0.4l-2.6-2.6   c-0.3-0.3-0.8-0.3-1.1,0l-2.6,2.6H10l-3.3-3.3l3.3-3.3h28.1c0.3,0,0.6-0.2,0.7-0.5c1.7-5,6.3-8.4,11.6-8.4   c6.8,0,12.3,5.5,12.3,12.3S57.2,58.8,50.4,58.8z"/><path class="st0" d="M55.4,41.3c-2.9,0-5.2,2.3-5.2,5.2s2.3,5.2,5.2,5.2c2.9,0,5.2-2.3,5.2-5.2S58.3,41.3,55.4,41.3z M55.4,50.2   c-2,0-3.7-1.7-3.7-3.7s1.7-3.7,3.7-3.7c2,0,3.7,1.7,3.7,3.7S57.5,50.2,55.4,50.2z"/><path class="st0" d="M41.3,5.5c0-0.4-0.3-0.8-0.8-0.8h-12c-0.4,0-0.8,0.3-0.8,0.8v14c0,0.4,0.3,0.8,0.8,0.8h12   c0.4,0,0.8-0.3,0.8-0.8V5.5z M39.8,18.8H29.3V6.3h10.5V18.8z"/><path class="st0" d="M47,23c0.1,0.1,0.1,0.1,0.2,0.2c0.1,0,0.2,0.1,0.3,0.1c0.2,0,0.4-0.1,0.5-0.2c0.1-0.1,0.1-0.2,0.2-0.2   c0-0.1,0-0.2,0-0.3c0-0.2-0.1-0.4-0.2-0.5c-0.3-0.3-0.8-0.3-1.1,0c-0.1,0.1-0.2,0.3-0.2,0.5c0,0.1,0,0.2,0.1,0.3S47,23,47,23z"/><path class="st0" d="M51.6,17.3c0.4,0,0.8-0.3,0.8-0.8v-9c0-0.4-0.3-0.8-0.8-0.8s-0.8,0.3-0.8,0.8v9C50.8,16.9,51.1,17.3,51.6,17.3   z"/><path class="st0" d="M51.6,4.3c0.4,0,0.8-0.3,0.8-0.8v-1c0-0.4-0.3-0.8-0.8-0.8s-0.8,0.3-0.8,0.8v1C50.8,3.9,51.1,4.3,51.6,4.3z"/><path class="st0" d="M1.6,6.6h1.3v1.3c0,0.4,0.3,0.8,0.8,0.8s0.8-0.3,0.8-0.8V6.6h1.3c0.4,0,0.8-0.3,0.8-0.8S6,5.1,5.6,5.1H4.3V3.8   c0-0.4-0.3-0.8-0.8-0.8S2.8,3.4,2.8,3.8v1.3H1.6c-0.4,0-0.8,0.3-0.8,0.8S1.1,6.6,1.6,6.6z"/><path class="st0" d="M50.7,28.3H52v1.3c0,0.4,0.3,0.8,0.8,0.8s0.8-0.3,0.8-0.8v-1.3h1.3c0.4,0,0.8-0.3,0.8-0.8s-0.3-0.8-0.8-0.8   h-1.3v-1.3c0-0.4-0.3-0.8-0.8-0.8S52,25.1,52,25.5v1.3h-1.3c-0.4,0-0.8,0.3-0.8,0.8S50.3,28.3,50.7,28.3z"/></g></svg>