<?xml version="1.0" ?><svg height="512" id="Outline" viewBox="0 0 512 512" width="512" xmlns="http://www.w3.org/2000/svg"><title/><g><path d="M414,152h4a38.043,38.043,0,0,0,38-38V102a38.043,38.043,0,0,0-38-38h-4a38.043,38.043,0,0,0-38,38v12A38.043,38.043,0,0,0,414,152Zm-22-50a22.025,22.025,0,0,1,22-22h4a22.025,22.025,0,0,1,22,22v12a22.025,22.025,0,0,1-22,22h-4a22.025,22.025,0,0,1-22-22Z"/><path d="M468,160H364a28.032,28.032,0,0,0-28,28v80a28.032,28.032,0,0,0,28,28h4V420a28.032,28.032,0,0,0,28,28h40a28.032,28.032,0,0,0,28-28V384H448v36a12.013,12.013,0,0,1-12,12H424V296H408V432H396a12.013,12.013,0,0,1-12-12V208H368v72h-4a12.013,12.013,0,0,1-12-12V188a12.013,12.013,0,0,1,12-12H468a12.013,12.013,0,0,1,12,12v80a12.013,12.013,0,0,1-12,12h-4V208H448V368h16V296h4a28.032,28.032,0,0,0,28-28V188A28.032,28.032,0,0,0,468,160Z"/><rect height="24" width="16" x="408" y="192"/><rect height="16" width="16" x="408" y="232"/><path d="M94,152h4a38.043,38.043,0,0,0,38-38V102A38.043,38.043,0,0,0,98,64H94a38.043,38.043,0,0,0-38,38v12A38.043,38.043,0,0,0,94,152ZM72,102A22.025,22.025,0,0,1,94,80h4a22.025,22.025,0,0,1,22,22v12a22.025,22.025,0,0,1-22,22H94a22.025,22.025,0,0,1-22-22Z"/><path d="M176,268V188a28.032,28.032,0,0,0-28-28H44a28.032,28.032,0,0,0-28,28v20H32V188a12.013,12.013,0,0,1,12-12H148a12.013,12.013,0,0,1,12,12v80a12.013,12.013,0,0,1-12,12h-4V208H128V420a12.013,12.013,0,0,1-12,12H104V296H88V432H76a12.013,12.013,0,0,1-12-12V208H48v72H44a12.013,12.013,0,0,1-12-12V224H16v44a28.032,28.032,0,0,0,28,28h4V420a28.032,28.032,0,0,0,28,28h40a28.032,28.032,0,0,0,28-28V296h4A28.032,28.032,0,0,0,176,268Z"/><rect height="24" width="16" x="88" y="192"/><rect height="16" width="16" x="88" y="232"/><polygon points="336 424 176 424 176 416 160 416 160 448 176 448 176 440 336 440 336 448 352 448 352 416 336 416 336 424"/></g></svg>