<?xml version="1.0" encoding="iso-8859-1"?>
<!-- Generator: Adobe Illustrator 16.0.0, SVG Export Plug-In . SVG Version: 6.00 Build 0)  -->
<!DOCTYPE svg PUBLIC "-//W3C//DTD SVG 1.1//EN" "http://www.w3.org/Graphics/SVG/1.1/DTD/svg11.dtd">
<svg version="1.1" id="Capa_1" xmlns="http://www.w3.org/2000/svg" xmlns:xlink="http://www.w3.org/1999/xlink" x="0px" y="0px"
	 width="612px" height="612px" viewBox="0 0 612 612" style="enable-background:new 0 0 612 612;" xml:space="preserve">
<g>
	<g id="Shape_9_1_">
		<g>
			<path d="M117.967,304.353c-25.264,0-45.816,20.624-45.816,45.958c0,25.346,20.552,45.959,45.816,45.959
				s45.816-20.623,45.816-45.959C163.783,324.976,143.231,304.353,117.967,304.353z M117.967,375.84
				c-14.024,0-25.438-11.454-25.438-25.519c0-14.075,11.413-25.529,25.438-25.529c14.035,0,25.448,11.454,25.448,25.529
				C143.415,364.386,132.002,375.84,117.967,375.84z M484.659,304.353c-25.264,0-45.815,20.624-45.815,45.958
				c0,25.346,20.552,45.959,45.815,45.959c25.265,0,45.816-20.623,45.816-45.959C530.476,324.976,509.924,304.353,484.659,304.353z
				 M484.659,375.84c-14.024,0-25.438-11.454-25.438-25.519c0-14.075,11.413-25.529,25.438-25.529
				c14.035,0,25.448,11.454,25.448,25.529C510.107,364.386,498.694,375.84,484.659,375.84z M539.084,290.614l-26.498-68.438h-412.09
				L72.61,287.258c-14.698,9.394-24.53,25.794-24.53,44.531v75.078c0,18.562,9.618,34.842,24.081,44.286v32.587
				c0,22.898,18.573,41.533,41.399,41.533h21.715c22.827,0,41.4-18.625,41.4-41.533v-23.989h262.178v23.989
				c0,22.898,18.573,41.533,41.399,41.533h21.715c22.826,0,41.399-18.625,41.399-41.533v-38.472h-0.907
				c10.21-9.649,16.676-23.245,16.676-38.392v-75.078C559.136,315.062,551.201,300.303,539.084,290.614z M113.918,242.605h384.725
				l14.311,36.963c-2.163-0.275-4.294-0.663-6.528-0.663H100.792c-0.867,0-1.683,0.214-2.54,0.255L113.918,242.605z
				 M156.297,483.741c0,11.628-9.435,21.093-21.021,21.093h-21.715c-11.597,0-21.021-9.465-21.021-21.093v-24.825
				c2.713,0.429,5.437,0.836,8.262,0.836h55.505v23.989H156.297z M522.989,483.741c0,11.628-9.435,21.093-21.021,21.093h-21.715
				c-11.597,0-21.021-9.465-21.021-21.093v-23.989h47.203c5.823,0,11.321-1.183,16.563-2.937v26.926H522.989z M538.758,406.868
				c0,17.89-14.504,32.444-32.343,32.444H100.792c-17.829,0-32.343-14.555-32.343-32.444V331.79
				c0-17.891,14.514-32.445,32.343-32.445h405.633c17.829,0,32.343,14.554,32.343,32.445v75.078H538.758z M189.874,396.281h234.925
				v-84.258H189.874V396.281z M210.242,332.462h194.188v43.378H210.242V332.462z M136.071,121.578
				c0.867-8.221,7.721-14.412,15.952-14.412h314.624c8.23,0,15.095,6.191,15.951,14.402l8.548,81.229l20.267-2.142l-8.548-81.229
				c-1.958-18.645-17.532-32.699-36.218-32.699H152.023c-18.686,0-34.25,14.055-36.218,32.699l-8.547,81.229l20.267,2.142
				L136.071,121.578z M588.389,173.177h-42.654c-13.025,0-23.612,10.628-23.612,23.683v17.686c0,13.065,10.598,23.693,23.612,23.693
				h42.654c13.024,0,23.611-10.628,23.611-23.693V196.86C612,183.805,601.413,173.177,588.389,173.177z M591.621,214.546
				c0,1.795-1.448,3.254-3.232,3.254h-42.654c-1.796,0-3.244-1.458-3.244-3.254V196.86c0-1.795,1.448-3.243,3.244-3.243h42.654
				c1.784,0,3.232,1.458,3.232,3.243V214.546z M89.878,214.546V196.86c0-13.055-10.587-23.683-23.612-23.683H23.612
				C10.597,173.177,0,183.805,0,196.86v17.686c0,13.065,10.597,23.693,23.612,23.693h42.654
				C79.291,238.239,89.878,227.611,89.878,214.546z M20.368,214.546V196.86c0-1.795,1.449-3.243,3.244-3.243h42.654
				c1.785,0,3.244,1.458,3.244,3.243v17.686c0,1.795-1.449,3.254-3.244,3.254H23.612C21.827,217.8,20.368,216.341,20.368,214.546z"
				/>
		</g>
	</g>
</g>
<g>
</g>
<g>
</g>
<g>
</g>
<g>
</g>
<g>
</g>
<g>
</g>
<g>
</g>
<g>
</g>
<g>
</g>
<g>
</g>
<g>
</g>
<g>
</g>
<g>
</g>
<g>
</g>
<g>
</g>
</svg>
