<?xml version="1.0" ?><svg height="32" id="svg4063" version="1.1" viewBox="0 0 32 32.000001" width="32" xmlns="http://www.w3.org/2000/svg" xmlns:cc="http://creativecommons.org/ns#" xmlns:dc="http://purl.org/dc/elements/1.1/" xmlns:inkscape="http://www.inkscape.org/namespaces/inkscape" xmlns:rdf="http://www.w3.org/1999/02/22-rdf-syntax-ns#" xmlns:sodipodi="http://sodipodi.sourceforge.net/DTD/sodipodi-0.dtd" xmlns:svg="http://www.w3.org/2000/svg"><defs id="defs4065"/><g id="layer1" transform="translate(0,-1020.3621)"><path d="M 15.988281 2.9980469 A 0.50005 0.50005 0 0 0 15.638672 3.1464844 C 13.116321 5.6944844 9.9084783 7.4526375 6.4042969 8.2109375 A 0.50005 0.50005 0 0 0 6.0097656 8.7011719 L 6.0097656 18.232422 C 6.0097656 20.922022 7.0481034 22.867031 8.7792969 24.457031 C 10.51049 26.046931 12.90579 27.333047 15.746094 28.935547 A 0.50005 0.50005 0 0 0 15.992188 28.998047 L 16.007812 28.998047 A 0.50005 0.50005 0 0 0 16.253906 28.935547 C 19.09421 27.333047 21.48951 26.046931 23.220703 24.457031 C 24.951897 22.867031 25.990234 20.922022 25.990234 18.232422 L 25.990234 8.6972656 A 0.50005 0.50005 0 0 0 25.595703 8.2070312 C 22.087882 7.4519312 18.875551 5.6929312 16.349609 3.1445312 A 0.50005 0.50005 0 0 0 15.988281 2.9980469 z M 15.994141 4.1171875 C 18.503616 6.5349875 21.600035 8.2316625 24.990234 9.0390625 L 24.990234 18.232422 C 24.990234 20.675622 24.132706 22.262503 22.544922 23.720703 C 21.006039 25.134103 18.730635 26.389134 16 27.927734 C 13.269365 26.389134 10.993961 25.134103 9.4550781 23.720703 C 7.867294 22.262503 7.0097656 20.675622 7.0097656 18.232422 L 7.0097656 9.0429688 C 10.396145 8.2326687 13.488319 6.5344875 15.994141 4.1171875 z M 16 10 C 12.692214 10 10 12.6922 10 16 C 10 19.3078 12.692214 22 16 22 C 19.307786 22 22 19.3078 22 16 C 22 12.6922 19.307786 10 16 10 z M 16 11 C 18.767346 11 21 13.2327 21 16 C 21 17.182217 20.575099 18.25081 19.892578 19.105469 C 19.598643 17.829373 18.6954 16.787188 17.503906 16.300781 C 17.808478 15.949498 17.999999 15.497793 18 15 C 17.999997 13.9014 17.098647 13 16 13 C 14.901353 13 14.000003 13.9014 14 15 C 14.000001 15.496811 14.190641 15.947821 14.494141 16.298828 C 13.305682 16.784233 12.398187 17.824052 12.103516 19.103516 C 11.422494 18.249338 11 17.180778 11 16 C 11 13.2327 13.232654 11 16 11 z M 16 14 C 16.558208 14 16.999999 14.4418 17 15 C 16.999999 15.5582 16.558208 16 16 16 C 15.441792 16 15.000001 15.5582 15 15 C 15.000001 14.4418 15.441792 14 16 14 z M 16.035156 17 C 17.668787 17.019 18.979195 18.329291 19 19.962891 A 0.50005 0.50005 0 0 0 19.001953 19.978516 C 18.164734 20.610468 17.132999 21 16 21 C 14.864469 21 13.830354 20.609127 12.992188 19.974609 A 0.50034398 0.50034398 0 0 0 13.001953 19.892578 C 13.061123 18.259978 14.401542 16.9808 16.035156 17 z " id="rect3478" style="color:#000000;font-style:normal;font-variant:normal;font-weight:normal;font-stretch:normal;font-size:medium;line-height:normal;font-family:sans-serif;text-indent:0;text-align:start;text-decoration:none;text-decoration-line:none;text-decoration-style:solid;text-decoration-color:#000000;letter-spacing:normal;word-spacing:normal;text-transform:none;direction:ltr;block-progression:tb;writing-mode:lr-tb;baseline-shift:baseline;text-anchor:start;white-space:normal;clip-rule:nonzero;display:inline;overflow:visible;visibility:visible;opacity:1;isolation:auto;mix-blend-mode:normal;color-interpolation:sRGB;color-interpolation-filters:linearRGB;solid-color:#000000;solid-opacity:1;fill:#000000;fill-opacity:1;fill-rule:nonzero;stroke:none;stroke-width:1;stroke-linecap:round;stroke-linejoin:round;stroke-miterlimit:4;stroke-dasharray:none;stroke-dashoffset:0;stroke-opacity:1;color-rendering:auto;image-rendering:auto;shape-rendering:auto;text-rendering:auto;enable-background:accumulate" transform="translate(0,1020.3621)"/></g></svg>